<svg xmlns="http://www.w3.org/2000/svg" viewBox="0 0 768 768" role="img" aria-label="Decorative feature split background">
  <path fill="#D4D5D6" d="M322 652C175 618 66 489 66 332c0-184 149-333 333-333 88 0 167 34 226 89-26-6-54-9-82-9-192 0-348 156-348 348 0 88 33 168 87 225z"/>
  <path fill="#E3E4E5" d="M320 652c-40-16-76-42-105-74-36-41-58-95-58-154 0-129 105-234 234-234 42 0 81 11 114 30-47-52-115-84-191-84-141 0-256 115-256 256 0 121 85 223 198 250h64z"/>
  <path d="M232 620V280l100-88 78 68 76-68 96 84" fill="none" stroke="#C4C5C5" stroke-width="36" stroke-linecap="square" stroke-linejoin="miter"/>
</svg>
